<svg xmlns="http://www.w3.org/2000/svg" width="840" height="300" viewBox="0 0 840 300" role="img" aria-label="Incline Treadmill progression">
<rect width="840" height="300" rx="10" fill="#0d1117" stroke="#30363d"/>
<text x="24" y="38" font-family="-apple-system,BlinkMacSystemFont,'Segoe UI',Helvetica,Arial,sans-serif" font-size="17" font-weight="700" fill="#e6edf3">Incline Treadmill</text><text x="816" y="38" text-anchor="end" font-family="ui-monospace,SFMono-Regular,Menlo,monospace" font-size="11" fill="#8b949e">best min per session · 2 sessions</text><line x1="24" y1="52" x2="816" y2="52" stroke="#30363d"/><line x1="64" y1="252.0" x2="808" y2="252.0" stroke="#30363d" stroke-dasharray="2,4"/><text x="56" y="256.0" text-anchor="end" font-family="ui-monospace,SFMono-Regular,Menlo,monospace" font-size="10" fill="#8b949e">29.9</text><line x1="64" y1="196.0" x2="808" y2="196.0" stroke="#30363d" stroke-dasharray="2,4"/><text x="56" y="200.0" text-anchor="end" font-family="ui-monospace,SFMono-Regular,Menlo,monospace" font-size="10" fill="#8b949e">30.3</text><line x1="64" y1="140.0" x2="808" y2="140.0" stroke="#30363d" stroke-dasharray="2,4"/><text x="56" y="144.0" text-anchor="end" font-family="ui-monospace,SFMono-Regular,Menlo,monospace" font-size="10" fill="#8b949e">30.7</text><line x1="64" y1="84.0" x2="808" y2="84.0" stroke="#30363d" stroke-dasharray="2,4"/><text x="56" y="88.0" text-anchor="end" font-family="ui-monospace,SFMono-Regular,Menlo,monospace" font-size="10" fill="#8b949e">31.1</text><polyline points="64.0,232.6 808.0,232.6" fill="none" stroke="#f78166" stroke-width="2.2" stroke-linejoin="round"/><polygon points="64,252 64.0,232.6 808.0,232.6 808.0,252" fill="#f78166" opacity="0.08"/><circle cx="64.0" cy="232.6" r="2.8" fill="#f78166"><title>2026-07-12: 30 min</title></circle><circle cx="808.0" cy="232.6" r="2.8" fill="#f78166"><title>2026-07-15: 30 min</title></circle><text x="64" y="280" font-family="ui-monospace,SFMono-Regular,Menlo,monospace" font-size="10" fill="#8b949e">2026-07-12</text><text x="808" y="280" text-anchor="end" font-family="ui-monospace,SFMono-Regular,Menlo,monospace" font-size="10" fill="#8b949e">2026-07-15</text><circle cx="658" cy="276" r="3.4" fill="#3fb950"/><text x="668" y="280" font-family="ui-monospace,SFMono-Regular,Menlo,monospace" font-size="10" fill="#8b949e">= PR session</text>
</svg>
