<svg xmlns="http://www.w3.org/2000/svg" width="840" height="236" viewBox="0 0 840 236" role="img" aria-label="Training activity heatmap">
<rect width="840" height="236" rx="10" fill="#0d1117" stroke="#30363d"/>
<text x="24" y="38" font-family="-apple-system,BlinkMacSystemFont,'Segoe UI',Helvetica,Arial,sans-serif" font-size="17" font-weight="700" fill="#e6edf3">Training Activity</text><text x="816" y="38" text-anchor="end" font-family="ui-monospace,SFMono-Regular,Menlo,monospace" font-size="11" fill="#8b949e">last 26 weeks</text><line x1="24" y1="52" x2="816" y2="52" stroke="#30363d"/><rect x="52" y="74" width="13" height="13" rx="3" fill="#161b22" stroke="#30363d" stroke-width="0.5"><title>2026-01-18: 0 exercises</title></rect><rect x="52" y="90" width="13" height="13" rx="3" fill="#161b22" stroke="#30363d" stroke-width="0.5"><title>2026-01-19: 0 exercises</title></rect><rect x="52" y="106" width="13" height="13" rx="3" fill="#161b22" stroke="#30363d" stroke-width="0.5"><title>2026-01-20: 0 exercises</title></rect><rect x="52" y="122" width="13" height="13" rx="3" fill="#161b22" stroke="#30363d" stroke-width="0.5"><title>2026-01-21: 0 exercises</title></rect><rect x="52" y="138" width="13" height="13" rx="3" fill="#161b22" stroke="#30363d" stroke-width="0.5"><title>2026-01-22: 0 exercises</title></rect><rect x="52" y="154" width="13" height="13" rx="3" fill="#161b22" stroke="#30363d" stroke-width="0.5"><title>2026-01-23: 0 exercises</title></rect><rect x="52" y="170" width="13" height="13" rx="3" fill="#161b22" stroke="#30363d" stroke-width="0.5"><title>2026-01-24: 0 exercises</title></rect><rect x="68" y="74" width="13" height="13" rx="3" fill="#161b22" stroke="#30363d" stroke-width="0.5"><title>2026-01-25: 0 exercises</title></rect><rect x="68" y="90" width="13" height="13" rx="3" fill="#161b22" stroke="#30363d" stroke-width="0.5"><title>2026-01-26: 0 exercises</title></rect><rect x="68" y="106" width="13" height="13" rx="3" fill="#161b22" stroke="#30363d" stroke-width="0.5"><title>2026-01-27: 0 exercises</title></rect><rect x="68" y="122" width="13" height="13" rx="3" fill="#161b22" stroke="#30363d" stroke-width="0.5"><title>2026-01-28: 0 exercises</title></rect><rect x="68" y="138" width="13" height="13" rx="3" fill="#161b22" stroke="#30363d" stroke-width="0.5"><title>2026-01-29: 0 exercises</title></rect><rect x="68" y="154" width="13" height="13" rx="3" fill="#161b22" stroke="#30363d" stroke-width="0.5"><title>2026-01-30: 0 exercises</title></rect><rect x="68" y="170" width="13" height="13" rx="3" fill="#161b22" stroke="#30363d" stroke-width="0.5"><title>2026-01-31: 0 exercises</title></rect><rect x="84" y="74" width="13" height="13" rx="3" fill="#161b22" stroke="#30363d" stroke-width="0.5"><title>2026-02-01: 0 exercises</title></rect><text x="84" y="66" font-family="ui-monospace,SFMono-Regular,Menlo,monospace" font-size="10" fill="#8b949e">Feb</text><rect x="84" y="90" width="13" height="13" rx="3" fill="#161b22" stroke="#30363d" stroke-width="0.5"><title>2026-02-02: 0 exercises</title></rect><rect x="84" y="106" width="13" height="13" rx="3" fill="#161b22" stroke="#30363d" stroke-width="0.5"><title>2026-02-03: 0 exercises</title></rect><rect x="84" y="122" width="13" height="13" rx="3" fill="#161b22" stroke="#30363d" stroke-width="0.5"><title>2026-02-04: 0 exercises</title></rect><rect x="84" y="138" width="13" height="13" rx="3" fill="#161b22" stroke="#30363d" stroke-width="0.5"><title>2026-02-05: 0 exercises</title></rect><rect x="84" y="154" width="13" height="13" rx="3" fill="#161b22" stroke="#30363d" stroke-width="0.5"><title>2026-02-06: 0 exercises</title></rect><rect x="84" y="170" width="13" height="13" rx="3" fill="#161b22" stroke="#30363d" stroke-width="0.5"><title>2026-02-07: 0 exercises</title></rect><rect x="100" y="74" width="13" height="13" rx="3" fill="#161b22" stroke="#30363d" stroke-width="0.5"><title>2026-02-08: 0 exercises</title></rect><rect x="100" y="90" width="13" height="13" rx="3" fill="#161b22" stroke="#30363d" stroke-width="0.5"><title>2026-02-09: 0 exercises</title></rect><rect x="100" y="106" width="13" height="13" rx="3" fill="#161b22" stroke="#30363d" stroke-width="0.5"><title>2026-02-10: 0 exercises</title></rect><rect x="100" y="122" width="13" height="13" rx="3" fill="#161b22" stroke="#30363d" stroke-width="0.5"><title>2026-02-11: 0 exercises</title></rect><rect x="100" y="138" width="13" height="13" rx="3" fill="#161b22" stroke="#30363d" stroke-width="0.5"><title>2026-02-12: 0 exercises</title></rect><rect x="100" y="154" width="13" height="13" rx="3" fill="#161b22" stroke="#30363d" stroke-width="0.5"><title>2026-02-13: 0 exercises</title></rect><rect x="100" y="170" width="13" height="13" rx="3" fill="#161b22" stroke="#30363d" stroke-width="0.5"><title>2026-02-14: 0 exercises</title></rect><rect x="116" y="74" width="13" height="13" rx="3" fill="#161b22" stroke="#30363d" stroke-width="0.5"><title>2026-02-15: 0 exercises</title></rect><rect x="116" y="90" width="13" height="13" rx="3" fill="#161b22" stroke="#30363d" stroke-width="0.5"><title>2026-02-16: 0 exercises</title></rect><rect x="116" y="106" width="13" height="13" rx="3" fill="#161b22" stroke="#30363d" stroke-width="0.5"><title>2026-02-17: 0 exercises</title></rect><rect x="116" y="122" width="13" height="13" rx="3" fill="#161b22" stroke="#30363d" stroke-width="0.5"><title>2026-02-18: 0 exercises</title></rect><rect x="116" y="138" width="13" height="13" rx="3" fill="#161b22" stroke="#30363d" stroke-width="0.5"><title>2026-02-19: 0 exercises</title></rect><rect x="116" y="154" width="13" height="13" rx="3" fill="#161b22" stroke="#30363d" stroke-width="0.5"><title>2026-02-20: 0 exercises</title></rect><rect x="116" y="170" width="13" height="13" rx="3" fill="#161b22" stroke="#30363d" stroke-width="0.5"><title>2026-02-21: 0 exercises</title></rect><rect x="132" y="74" width="13" height="13" rx="3" fill="#161b22" stroke="#30363d" stroke-width="0.5"><title>2026-02-22: 0 exercises</title></rect><rect x="132" y="90" width="13" height="13" rx="3" fill="#161b22" stroke="#30363d" stroke-width="0.5"><title>2026-02-23: 0 exercises</title></rect><rect x="132" y="106" width="13" height="13" rx="3" fill="#161b22" stroke="#30363d" stroke-width="0.5"><title>2026-02-24: 0 exercises</title></rect><rect x="132" y="122" width="13" height="13" rx="3" fill="#161b22" stroke="#30363d" stroke-width="0.5"><title>2026-02-25: 0 exercises</title></rect><rect x="132" y="138" width="13" height="13" rx="3" fill="#161b22" stroke="#30363d" stroke-width="0.5"><title>2026-02-26: 0 exercises</title></rect><rect x="132" y="154" width="13" height="13" rx="3" fill="#161b22" stroke="#30363d" stroke-width="0.5"><title>2026-02-27: 0 exercises</title></rect><rect x="132" y="170" width="13" height="13" rx="3" fill="#161b22" stroke="#30363d" stroke-width="0.5"><title>2026-02-28: 0 exercises</title></rect><rect x="148" y="74" width="13" height="13" rx="3" fill="#161b22" stroke="#30363d" stroke-width="0.5"><title>2026-03-01: 0 exercises</title></rect><text x="148" y="66" font-family="ui-monospace,SFMono-Regular,Menlo,monospace" font-size="10" fill="#8b949e">Mar</text><rect x="148" y="90" width="13" height="13" rx="3" fill="#161b22" stroke="#30363d" stroke-width="0.5"><title>2026-03-02: 0 exercises</title></rect><rect x="148" y="106" width="13" height="13" rx="3" fill="#161b22" stroke="#30363d" stroke-width="0.5"><title>2026-03-03: 0 exercises</title></rect><rect x="148" y="122" width="13" height="13" rx="3" fill="#161b22" stroke="#30363d" stroke-width="0.5"><title>2026-03-04: 0 exercises</title></rect><rect x="148" y="138" width="13" height="13" rx="3" fill="#161b22" stroke="#30363d" stroke-width="0.5"><title>2026-03-05: 0 exercises</title></rect><rect x="148" y="154" width="13" height="13" rx="3" fill="#161b22" stroke="#30363d" stroke-width="0.5"><title>2026-03-06: 0 exercises</title></rect><rect x="148" y="170" width="13" height="13" rx="3" fill="#161b22" stroke="#30363d" stroke-width="0.5"><title>2026-03-07: 0 exercises</title></rect><rect x="164" y="74" width="13" height="13" rx="3" fill="#161b22" stroke="#30363d" stroke-width="0.5"><title>2026-03-08: 0 exercises</title></rect><rect x="164" y="90" width="13" height="13" rx="3" fill="#161b22" stroke="#30363d" stroke-width="0.5"><title>2026-03-09: 0 exercises</title></rect><rect x="164" y="106" width="13" height="13" rx="3" fill="#161b22" stroke="#30363d" stroke-width="0.5"><title>2026-03-10: 0 exercises</title></rect><rect x="164" y="122" width="13" height="13" rx="3" fill="#161b22" stroke="#30363d" stroke-width="0.5"><title>2026-03-11: 0 exercises</title></rect><rect x="164" y="138" width="13" height="13" rx="3" fill="#161b22" stroke="#30363d" stroke-width="0.5"><title>2026-03-12: 0 exercises</title></rect><rect x="164" y="154" width="13" height="13" rx="3" fill="#161b22" stroke="#30363d" stroke-width="0.5"><title>2026-03-13: 0 exercises</title></rect><rect x="164" y="170" width="13" height="13" rx="3" fill="#161b22" stroke="#30363d" stroke-width="0.5"><title>2026-03-14: 0 exercises</title></rect><rect x="180" y="74" width="13" height="13" rx="3" fill="#161b22" stroke="#30363d" stroke-width="0.5"><title>2026-03-15: 0 exercises</title></rect><rect x="180" y="90" width="13" height="13" rx="3" fill="#161b22" stroke="#30363d" stroke-width="0.5"><title>2026-03-16: 0 exercises</title></rect><rect x="180" y="106" width="13" height="13" rx="3" fill="#161b22" stroke="#30363d" stroke-width="0.5"><title>2026-03-17: 0 exercises</title></rect><rect x="180" y="122" width="13" height="13" rx="3" fill="#161b22" stroke="#30363d" stroke-width="0.5"><title>2026-03-18: 0 exercises</title></rect><rect x="180" y="138" width="13" height="13" rx="3" fill="#161b22" stroke="#30363d" stroke-width="0.5"><title>2026-03-19: 0 exercises</title></rect><rect x="180" y="154" width="13" height="13" rx="3" fill="#161b22" stroke="#30363d" stroke-width="0.5"><title>2026-03-20: 0 exercises</title></rect><rect x="180" y="170" width="13" height="13" rx="3" fill="#161b22" stroke="#30363d" stroke-width="0.5"><title>2026-03-21: 0 exercises</title></rect><rect x="196" y="74" width="13" height="13" rx="3" fill="#161b22" stroke="#30363d" stroke-width="0.5"><title>2026-03-22: 0 exercises</title></rect><rect x="196" y="90" width="13" height="13" rx="3" fill="#161b22" stroke="#30363d" stroke-width="0.5"><title>2026-03-23: 0 exercises</title></rect><rect x="196" y="106" width="13" height="13" rx="3" fill="#161b22" stroke="#30363d" stroke-width="0.5"><title>2026-03-24: 0 exercises</title></rect><rect x="196" y="122" width="13" height="13" rx="3" fill="#161b22" stroke="#30363d" stroke-width="0.5"><title>2026-03-25: 0 exercises</title></rect><rect x="196" y="138" width="13" height="13" rx="3" fill="#161b22" stroke="#30363d" stroke-width="0.5"><title>2026-03-26: 0 exercises</title></rect><rect x="196" y="154" width="13" height="13" rx="3" fill="#161b22" stroke="#30363d" stroke-width="0.5"><title>2026-03-27: 0 exercises</title></rect><rect x="196" y="170" width="13" height="13" rx="3" fill="#161b22" stroke="#30363d" stroke-width="0.5"><title>2026-03-28: 0 exercises</title></rect><rect x="212" y="74" width="13" height="13" rx="3" fill="#161b22" stroke="#30363d" stroke-width="0.5"><title>2026-03-29: 0 exercises</title></rect><rect x="212" y="90" width="13" height="13" rx="3" fill="#161b22" stroke="#30363d" stroke-width="0.5"><title>2026-03-30: 0 exercises</title></rect><rect x="212" y="106" width="13" height="13" rx="3" fill="#161b22" stroke="#30363d" stroke-width="0.5"><title>2026-03-31: 0 exercises</title></rect><rect x="212" y="122" width="13" height="13" rx="3" fill="#161b22" stroke="#30363d" stroke-width="0.5"><title>2026-04-01: 0 exercises</title></rect><rect x="212" y="138" width="13" height="13" rx="3" fill="#161b22" stroke="#30363d" stroke-width="0.5"><title>2026-04-02: 0 exercises</title></rect><rect x="212" y="154" width="13" height="13" rx="3" fill="#161b22" stroke="#30363d" stroke-width="0.5"><title>2026-04-03: 0 exercises</title></rect><rect x="212" y="170" width="13" height="13" rx="3" fill="#161b22" stroke="#30363d" stroke-width="0.5"><title>2026-04-04: 0 exercises</title></rect><rect x="228" y="74" width="13" height="13" rx="3" fill="#161b22" stroke="#30363d" stroke-width="0.5"><title>2026-04-05: 0 exercises</title></rect><text x="228" y="66" font-family="ui-monospace,SFMono-Regular,Menlo,monospace" font-size="10" fill="#8b949e">Apr</text><rect x="228" y="90" width="13" height="13" rx="3" fill="#161b22" stroke="#30363d" stroke-width="0.5"><title>2026-04-06: 0 exercises</title></rect><rect x="228" y="106" width="13" height="13" rx="3" fill="#161b22" stroke="#30363d" stroke-width="0.5"><title>2026-04-07: 0 exercises</title></rect><rect x="228" y="122" width="13" height="13" rx="3" fill="#161b22" stroke="#30363d" stroke-width="0.5"><title>2026-04-08: 0 exercises</title></rect><rect x="228" y="138" width="13" height="13" rx="3" fill="#161b22" stroke="#30363d" stroke-width="0.5"><title>2026-04-09: 0 exercises</title></rect><rect x="228" y="154" width="13" height="13" rx="3" fill="#161b22" stroke="#30363d" stroke-width="0.5"><title>2026-04-10: 0 exercises</title></rect><rect x="228" y="170" width="13" height="13" rx="3" fill="#161b22" stroke="#30363d" stroke-width="0.5"><title>2026-04-11: 0 exercises</title></rect><rect x="244" y="74" width="13" height="13" rx="3" fill="#161b22" stroke="#30363d" stroke-width="0.5"><title>2026-04-12: 0 exercises</title></rect><rect x="244" y="90" width="13" height="13" rx="3" fill="#161b22" stroke="#30363d" stroke-width="0.5"><title>2026-04-13: 0 exercises</title></rect><rect x="244" y="106" width="13" height="13" rx="3" fill="#161b22" stroke="#30363d" stroke-width="0.5"><title>2026-04-14: 0 exercises</title></rect><rect x="244" y="122" width="13" height="13" rx="3" fill="#161b22" stroke="#30363d" stroke-width="0.5"><title>2026-04-15: 0 exercises</title></rect><rect x="244" y="138" width="13" height="13" rx="3" fill="#161b22" stroke="#30363d" stroke-width="0.5"><title>2026-04-16: 0 exercises</title></rect><rect x="244" y="154" width="13" height="13" rx="3" fill="#161b22" stroke="#30363d" stroke-width="0.5"><title>2026-04-17: 0 exercises</title></rect><rect x="244" y="170" width="13" height="13" rx="3" fill="#161b22" stroke="#30363d" stroke-width="0.5"><title>2026-04-18: 0 exercises</title></rect><rect x="260" y="74" width="13" height="13" rx="3" fill="#161b22" stroke="#30363d" stroke-width="0.5"><title>2026-04-19: 0 exercises</title></rect><rect x="260" y="90" width="13" height="13" rx="3" fill="#161b22" stroke="#30363d" stroke-width="0.5"><title>2026-04-20: 0 exercises</title></rect><rect x="260" y="106" width="13" height="13" rx="3" fill="#161b22" stroke="#30363d" stroke-width="0.5"><title>2026-04-21: 0 exercises</title></rect><rect x="260" y="122" width="13" height="13" rx="3" fill="#161b22" stroke="#30363d" stroke-width="0.5"><title>2026-04-22: 0 exercises</title></rect><rect x="260" y="138" width="13" height="13" rx="3" fill="#161b22" stroke="#30363d" stroke-width="0.5"><title>2026-04-23: 0 exercises</title></rect><rect x="260" y="154" width="13" height="13" rx="3" fill="#161b22" stroke="#30363d" stroke-width="0.5"><title>2026-04-24: 0 exercises</title></rect><rect x="260" y="170" width="13" height="13" rx="3" fill="#161b22" stroke="#30363d" stroke-width="0.5"><title>2026-04-25: 0 exercises</title></rect><rect x="276" y="74" width="13" height="13" rx="3" fill="#161b22" stroke="#30363d" stroke-width="0.5"><title>2026-04-26: 0 exercises</title></rect><rect x="276" y="90" width="13" height="13" rx="3" fill="#161b22" stroke="#30363d" stroke-width="0.5"><title>2026-04-27: 0 exercises</title></rect><rect x="276" y="106" width="13" height="13" rx="3" fill="#161b22" stroke="#30363d" stroke-width="0.5"><title>2026-04-28: 0 exercises</title></rect><rect x="276" y="122" width="13" height="13" rx="3" fill="#161b22" stroke="#30363d" stroke-width="0.5"><title>2026-04-29: 0 exercises</title></rect><rect x="276" y="138" width="13" height="13" rx="3" fill="#161b22" stroke="#30363d" stroke-width="0.5"><title>2026-04-30: 0 exercises</title></rect><rect x="276" y="154" width="13" height="13" rx="3" fill="#161b22" stroke="#30363d" stroke-width="0.5"><title>2026-05-01: 0 exercises</title></rect><rect x="276" y="170" width="13" height="13" rx="3" fill="#161b22" stroke="#30363d" stroke-width="0.5"><title>2026-05-02: 0 exercises</title></rect><rect x="292" y="74" width="13" height="13" rx="3" fill="#161b22" stroke="#30363d" stroke-width="0.5"><title>2026-05-03: 0 exercises</title></rect><text x="292" y="66" font-family="ui-monospace,SFMono-Regular,Menlo,monospace" font-size="10" fill="#8b949e">May</text><rect x="292" y="90" width="13" height="13" rx="3" fill="#161b22" stroke="#30363d" stroke-width="0.5"><title>2026-05-04: 0 exercises</title></rect><rect x="292" y="106" width="13" height="13" rx="3" fill="#161b22" stroke="#30363d" stroke-width="0.5"><title>2026-05-05: 0 exercises</title></rect><rect x="292" y="122" width="13" height="13" rx="3" fill="#161b22" stroke="#30363d" stroke-width="0.5"><title>2026-05-06: 0 exercises</title></rect><rect x="292" y="138" width="13" height="13" rx="3" fill="#161b22" stroke="#30363d" stroke-width="0.5"><title>2026-05-07: 0 exercises</title></rect><rect x="292" y="154" width="13" height="13" rx="3" fill="#161b22" stroke="#30363d" stroke-width="0.5"><title>2026-05-08: 0 exercises</title></rect><rect x="292" y="170" width="13" height="13" rx="3" fill="#161b22" stroke="#30363d" stroke-width="0.5"><title>2026-05-09: 0 exercises</title></rect><rect x="308" y="74" width="13" height="13" rx="3" fill="#161b22" stroke="#30363d" stroke-width="0.5"><title>2026-05-10: 0 exercises</title></rect><rect x="308" y="90" width="13" height="13" rx="3" fill="#161b22" stroke="#30363d" stroke-width="0.5"><title>2026-05-11: 0 exercises</title></rect><rect x="308" y="106" width="13" height="13" rx="3" fill="#161b22" stroke="#30363d" stroke-width="0.5"><title>2026-05-12: 0 exercises</title></rect><rect x="308" y="122" width="13" height="13" rx="3" fill="#161b22" stroke="#30363d" stroke-width="0.5"><title>2026-05-13: 0 exercises</title></rect><rect x="308" y="138" width="13" height="13" rx="3" fill="#161b22" stroke="#30363d" stroke-width="0.5"><title>2026-05-14: 0 exercises</title></rect><rect x="308" y="154" width="13" height="13" rx="3" fill="#161b22" stroke="#30363d" stroke-width="0.5"><title>2026-05-15: 0 exercises</title></rect><rect x="308" y="170" width="13" height="13" rx="3" fill="#161b22" stroke="#30363d" stroke-width="0.5"><title>2026-05-16: 0 exercises</title></rect><rect x="324" y="74" width="13" height="13" rx="3" fill="#161b22" stroke="#30363d" stroke-width="0.5"><title>2026-05-17: 0 exercises</title></rect><rect x="324" y="90" width="13" height="13" rx="3" fill="#161b22" stroke="#30363d" stroke-width="0.5"><title>2026-05-18: 0 exercises</title></rect><rect x="324" y="106" width="13" height="13" rx="3" fill="#161b22" stroke="#30363d" stroke-width="0.5"><title>2026-05-19: 0 exercises</title></rect><rect x="324" y="122" width="13" height="13" rx="3" fill="#161b22" stroke="#30363d" stroke-width="0.5"><title>2026-05-20: 0 exercises</title></rect><rect x="324" y="138" width="13" height="13" rx="3" fill="#161b22" stroke="#30363d" stroke-width="0.5"><title>2026-05-21: 0 exercises</title></rect><rect x="324" y="154" width="13" height="13" rx="3" fill="#161b22" stroke="#30363d" stroke-width="0.5"><title>2026-05-22: 0 exercises</title></rect><rect x="324" y="170" width="13" height="13" rx="3" fill="#161b22" stroke="#30363d" stroke-width="0.5"><title>2026-05-23: 0 exercises</title></rect><rect x="340" y="74" width="13" height="13" rx="3" fill="#161b22" stroke="#30363d" stroke-width="0.5"><title>2026-05-24: 0 exercises</title></rect><rect x="340" y="90" width="13" height="13" rx="3" fill="#161b22" stroke="#30363d" stroke-width="0.5"><title>2026-05-25: 0 exercises</title></rect><rect x="340" y="106" width="13" height="13" rx="3" fill="#161b22" stroke="#30363d" stroke-width="0.5"><title>2026-05-26: 0 exercises</title></rect><rect x="340" y="122" width="13" height="13" rx="3" fill="#161b22" stroke="#30363d" stroke-width="0.5"><title>2026-05-27: 0 exercises</title></rect><rect x="340" y="138" width="13" height="13" rx="3" fill="#161b22" stroke="#30363d" stroke-width="0.5"><title>2026-05-28: 0 exercises</title></rect><rect x="340" y="154" width="13" height="13" rx="3" fill="#161b22" stroke="#30363d" stroke-width="0.5"><title>2026-05-29: 0 exercises</title></rect><rect x="340" y="170" width="13" height="13" rx="3" fill="#161b22" stroke="#30363d" stroke-width="0.5"><title>2026-05-30: 0 exercises</title></rect><rect x="356" y="74" width="13" height="13" rx="3" fill="#161b22" stroke="#30363d" stroke-width="0.5"><title>2026-05-31: 0 exercises</title></rect><rect x="356" y="90" width="13" height="13" rx="3" fill="#161b22" stroke="#30363d" stroke-width="0.5"><title>2026-06-01: 0 exercises</title></rect><rect x="356" y="106" width="13" height="13" rx="3" fill="#161b22" stroke="#30363d" stroke-width="0.5"><title>2026-06-02: 0 exercises</title></rect><rect x="356" y="122" width="13" height="13" rx="3" fill="#161b22" stroke="#30363d" stroke-width="0.5"><title>2026-06-03: 0 exercises</title></rect><rect x="356" y="138" width="13" height="13" rx="3" fill="#161b22" stroke="#30363d" stroke-width="0.5"><title>2026-06-04: 0 exercises</title></rect><rect x="356" y="154" width="13" height="13" rx="3" fill="#161b22" stroke="#30363d" stroke-width="0.5"><title>2026-06-05: 0 exercises</title></rect><rect x="356" y="170" width="13" height="13" rx="3" fill="#161b22" stroke="#30363d" stroke-width="0.5"><title>2026-06-06: 0 exercises</title></rect><rect x="372" y="74" width="13" height="13" rx="3" fill="#161b22" stroke="#30363d" stroke-width="0.5"><title>2026-06-07: 0 exercises</title></rect><text x="372" y="66" font-family="ui-monospace,SFMono-Regular,Menlo,monospace" font-size="10" fill="#8b949e">Jun</text><rect x="372" y="90" width="13" height="13" rx="3" fill="#161b22" stroke="#30363d" stroke-width="0.5"><title>2026-06-08: 0 exercises</title></rect><rect x="372" y="106" width="13" height="13" rx="3" fill="#161b22" stroke="#30363d" stroke-width="0.5"><title>2026-06-09: 0 exercises</title></rect><rect x="372" y="122" width="13" height="13" rx="3" fill="#161b22" stroke="#30363d" stroke-width="0.5"><title>2026-06-10: 0 exercises</title></rect><rect x="372" y="138" width="13" height="13" rx="3" fill="#161b22" stroke="#30363d" stroke-width="0.5"><title>2026-06-11: 0 exercises</title></rect><rect x="372" y="154" width="13" height="13" rx="3" fill="#161b22" stroke="#30363d" stroke-width="0.5"><title>2026-06-12: 0 exercises</title></rect><rect x="372" y="170" width="13" height="13" rx="3" fill="#161b22" stroke="#30363d" stroke-width="0.5"><title>2026-06-13: 0 exercises</title></rect><rect x="388" y="74" width="13" height="13" rx="3" fill="#161b22" stroke="#30363d" stroke-width="0.5"><title>2026-06-14: 0 exercises</title></rect><rect x="388" y="90" width="13" height="13" rx="3" fill="#161b22" stroke="#30363d" stroke-width="0.5"><title>2026-06-15: 0 exercises</title></rect><rect x="388" y="106" width="13" height="13" rx="3" fill="#161b22" stroke="#30363d" stroke-width="0.5"><title>2026-06-16: 0 exercises</title></rect><rect x="388" y="122" width="13" height="13" rx="3" fill="#161b22" stroke="#30363d" stroke-width="0.5"><title>2026-06-17: 0 exercises</title></rect><rect x="388" y="138" width="13" height="13" rx="3" fill="#161b22" stroke="#30363d" stroke-width="0.5"><title>2026-06-18: 0 exercises</title></rect><rect x="388" y="154" width="13" height="13" rx="3" fill="#161b22" stroke="#30363d" stroke-width="0.5"><title>2026-06-19: 0 exercises</title></rect><rect x="388" y="170" width="13" height="13" rx="3" fill="#161b22" stroke="#30363d" stroke-width="0.5"><title>2026-06-20: 0 exercises</title></rect><rect x="404" y="74" width="13" height="13" rx="3" fill="#161b22" stroke="#30363d" stroke-width="0.5"><title>2026-06-21: 0 exercises</title></rect><rect x="404" y="90" width="13" height="13" rx="3" fill="#161b22" stroke="#30363d" stroke-width="0.5"><title>2026-06-22: 0 exercises</title></rect><rect x="404" y="106" width="13" height="13" rx="3" fill="#161b22" stroke="#30363d" stroke-width="0.5"><title>2026-06-23: 0 exercises</title></rect><rect x="404" y="122" width="13" height="13" rx="3" fill="#161b22" stroke="#30363d" stroke-width="0.5"><title>2026-06-24: 0 exercises</title></rect><rect x="404" y="138" width="13" height="13" rx="3" fill="#161b22" stroke="#30363d" stroke-width="0.5"><title>2026-06-25: 0 exercises</title></rect><rect x="404" y="154" width="13" height="13" rx="3" fill="#161b22" stroke="#30363d" stroke-width="0.5"><title>2026-06-26: 0 exercises</title></rect><rect x="404" y="170" width="13" height="13" rx="3" fill="#161b22" stroke="#30363d" stroke-width="0.5"><title>2026-06-27: 0 exercises</title></rect><rect x="420" y="74" width="13" height="13" rx="3" fill="#161b22" stroke="#30363d" stroke-width="0.5"><title>2026-06-28: 0 exercises</title></rect><rect x="420" y="90" width="13" height="13" rx="3" fill="#161b22" stroke="#30363d" stroke-width="0.5"><title>2026-06-29: 0 exercises</title></rect><rect x="420" y="106" width="13" height="13" rx="3" fill="#161b22" stroke="#30363d" stroke-width="0.5"><title>2026-06-30: 0 exercises</title></rect><rect x="420" y="122" width="13" height="13" rx="3" fill="#161b22" stroke="#30363d" stroke-width="0.5"><title>2026-07-01: 0 exercises</title></rect><rect x="420" y="138" width="13" height="13" rx="3" fill="#161b22" stroke="#30363d" stroke-width="0.5"><title>2026-07-02: 0 exercises</title></rect><rect x="420" y="154" width="13" height="13" rx="3" fill="#161b22" stroke="#30363d" stroke-width="0.5"><title>2026-07-03: 0 exercises</title></rect><rect x="420" y="170" width="13" height="13" rx="3" fill="#161b22" stroke="#30363d" stroke-width="0.5"><title>2026-07-04: 0 exercises</title></rect><rect x="436" y="74" width="13" height="13" rx="3" fill="#161b22" stroke="#30363d" stroke-width="0.5"><title>2026-07-05: 0 exercises</title></rect><text x="436" y="66" font-family="ui-monospace,SFMono-Regular,Menlo,monospace" font-size="10" fill="#8b949e">Jul</text><rect x="436" y="90" width="13" height="13" rx="3" fill="#161b22" stroke="#30363d" stroke-width="0.5"><title>2026-07-06: 0 exercises</title></rect><rect x="436" y="106" width="13" height="13" rx="3" fill="#161b22" stroke="#30363d" stroke-width="0.5"><title>2026-07-07: 0 exercises</title></rect><rect x="436" y="122" width="13" height="13" rx="3" fill="#161b22" stroke="#30363d" stroke-width="0.5"><title>2026-07-08: 0 exercises</title></rect><rect x="436" y="138" width="13" height="13" rx="3" fill="#161b22" stroke="#30363d" stroke-width="0.5"><title>2026-07-09: 0 exercises</title></rect><rect x="436" y="154" width="13" height="13" rx="3" fill="#161b22" stroke="#30363d" stroke-width="0.5"><title>2026-07-10: 0 exercises</title></rect><rect x="436" y="170" width="13" height="13" rx="3" fill="#161b22" stroke="#30363d" stroke-width="0.5"><title>2026-07-11: 0 exercises</title></rect><rect x="452" y="74" width="13" height="13" rx="3" fill="#1c3a28" stroke="#30363d" stroke-width="0.5"><title>2026-07-12: 1 exercise</title></rect><rect x="452" y="90" width="13" height="13" rx="3" fill="#161b22" stroke="#30363d" stroke-width="0.5"><title>2026-07-13: 0 exercises</title></rect><rect x="452" y="106" width="13" height="13" rx="3" fill="#161b22" stroke="#30363d" stroke-width="0.5"><title>2026-07-14: 0 exercises</title></rect><rect x="452" y="122" width="13" height="13" rx="3" fill="#56d364" stroke="#30363d" stroke-width="0.5"><title>2026-07-15: 7 exercises</title></rect><rect x="452" y="138" width="13" height="13" rx="3" fill="#161b22" stroke="#30363d" stroke-width="0.5"><title>2026-07-16: 0 exercises</title></rect><text x="44" y="100" text-anchor="end" font-family="ui-monospace,SFMono-Regular,Menlo,monospace" font-size="9" fill="#8b949e">Mon</text><text x="44" y="132" text-anchor="end" font-family="ui-monospace,SFMono-Regular,Menlo,monospace" font-size="9" fill="#8b949e">Wed</text><text x="44" y="164" text-anchor="end" font-family="ui-monospace,SFMono-Regular,Menlo,monospace" font-size="9" fill="#8b949e">Fri</text><text x="52" y="212" font-family="ui-monospace,SFMono-Regular,Menlo,monospace" font-size="9" fill="#8b949e">less</text><rect x="86" y="202" width="13" height="13" rx="3" fill="#161b22" stroke="#30363d" stroke-width="0.5"/><rect x="103" y="202" width="13" height="13" rx="3" fill="#1c3a28" stroke="#30363d" stroke-width="0.5"/><rect x="120" y="202" width="13" height="13" rx="3" fill="#1f6f3a" stroke="#30363d" stroke-width="0.5"/><rect x="137" y="202" width="13" height="13" rx="3" fill="#2ea043" stroke="#30363d" stroke-width="0.5"/><rect x="154" y="202" width="13" height="13" rx="3" fill="#56d364" stroke="#30363d" stroke-width="0.5"/><text x="177" y="212" font-family="ui-monospace,SFMono-Regular,Menlo,monospace" font-size="9" fill="#8b949e">more</text>
</svg>
